<?xml version="1.0" encoding="UTF-8" standalone="no"?>
<!DOCTYPE svg PUBLIC "-//W3C//DTD SVG 1.1//EN"
 "http://www.w3.org/Graphics/SVG/1.1/DTD/svg11.dtd">
<!-- Generated by graphviz version 2.43.0 (0)
 -->
<!-- Title: RFTPU_4x4 Pages: 1 -->
<svg width="1217pt" height="719pt"
 viewBox="0.00 0.00 1217.00 719.00" xmlns="http://www.w3.org/2000/svg" xmlns:xlink="http://www.w3.org/1999/xlink">
<g id="graph0" class="graph" transform="scale(1 1) rotate(0) translate(4 715)">
<title>RFTPU_4x4</title>
<polygon fill="white" stroke="transparent" points="-4,4 -4,-715 1213,-715 1213,4 -4,4"/>
<g id="clust1" class="cluster">
<title>cluster_tiles</title>
<polygon fill="lightyellow" stroke="black" points="8,-8 8,-444 1012,-444 1012,-8 8,-8"/>
<text text-anchor="middle" x="510" y="-428.8" font-family="Times,serif" font-size="14.00">16 Tiles (4×4 Grid)</text>
</g>
<!-- top -->
<g id="node1" class="node">
<title>top</title>
<polygon fill="lightblue" stroke="black" points="1038.5,-691.5 865.5,-691.5 865.5,-638.5 1038.5,-638.5 1038.5,-691.5"/>
<text text-anchor="middle" x="952" y="-676.3" font-family="Times,serif" font-size="14.00">RFTPU Accelerator</text>
<text text-anchor="middle" x="952" y="-661.3" font-family="Times,serif" font-size="14.00">4×4 Tile Array</text>
<text text-anchor="middle" x="952" y="-646.3" font-family="Times,serif" font-size="14.00">~180K gates, 2.5mm²</text>
</g>
<!-- dma -->
<g id="node2" class="node">
<title>dma</title>
<polygon fill="lightgreen" stroke="black" points="1087,-538 977,-538 977,-500 1087,-500 1087,-538"/>
<text text-anchor="middle" x="1032" y="-522.8" font-family="Times,serif" font-size="14.00">DMA Ingress</text>
<text text-anchor="middle" x="1032" y="-507.8" font-family="Times,serif" font-size="14.00">Controller</text>
</g>
<!-- top&#45;&gt;dma -->
<g id="edge7" class="edge">
<title>top&#45;&gt;dma</title>
<path fill="none" stroke="black" d="M966.3,-638.26C980.55,-612.61 1002.35,-573.37 1016.88,-547.22"/>
<polygon fill="black" stroke="black" points="1020.08,-548.67 1021.88,-538.22 1013.96,-545.27 1020.08,-548.67"/>
<text text-anchor="middle" x="1033.5" y="-589.8" font-family="Times,serif" font-size="14.00">DMA</text>
<text text-anchor="middle" x="1033.5" y="-574.8" font-family="Times,serif" font-size="14.00">Interface</text>
</g>
<!-- noc -->
<g id="node3" class="node">
<title>noc</title>
<polygon fill="orange" stroke="black" points="946.5,-553 797.5,-553 797.5,-485 946.5,-485 946.5,-553"/>
<text text-anchor="middle" x="872" y="-537.8" font-family="Times,serif" font-size="14.00">NoC Fabric</text>
<text text-anchor="middle" x="872" y="-522.8" font-family="Times,serif" font-size="14.00">8×8 Mesh</text>
<text text-anchor="middle" x="872" y="-507.8" font-family="Times,serif" font-size="14.00">Wormhole Routing</text>
<text text-anchor="middle" x="872" y="-492.8" font-family="Times,serif" font-size="14.00">16 Inflight Buffers</text>
</g>
<!-- top&#45;&gt;noc -->
<g id="edge8" class="edge">
<title>top&#45;&gt;noc</title>
<path fill="none" stroke="black" d="M937.7,-638.26C925.93,-617.07 909.02,-586.63 895.3,-561.93"/>
<polygon fill="black" stroke="black" points="898.32,-560.17 890.4,-553.12 892.2,-563.57 898.32,-560.17"/>
<text text-anchor="middle" x="948.5" y="-589.8" font-family="Times,serif" font-size="14.00">NoC</text>
<text text-anchor="middle" x="948.5" y="-574.8" font-family="Times,serif" font-size="14.00">Interface</text>
</g>
<!-- t0 -->
<g id="node4" class="node">
<title>t0</title>
<polygon fill="wheat" stroke="black" points="534,-413 392,-413 392,-345 534,-345 534,-413"/>
<text text-anchor="middle" x="463" y="-397.8" font-family="Times,serif" font-size="14.00">Tile(0,0)</text>
<text text-anchor="middle" x="463" y="-382.8" font-family="Times,serif" font-size="14.00">Φ&#45;RFT Core</text>
<text text-anchor="middle" x="463" y="-367.8" font-family="Times,serif" font-size="14.00">32×256b Scratch</text>
<text text-anchor="middle" x="463" y="-352.8" font-family="Times,serif" font-size="14.00">32×256b Topo</text>
</g>
<!-- dma&#45;&gt;t0 -->
<g id="edge9" class="edge">
<title>dma&#45;&gt;t0</title>
<path fill="none" stroke="blue" d="M996.46,-499.93C983.96,-494.29 969.63,-488.61 956,-485 824.62,-450.21 787.35,-464.31 652,-452 627.81,-449.8 565.61,-452.87 543,-444 528.74,-438.4 515.02,-429.33 503.09,-419.75"/>
<polygon fill="blue" stroke="blue" points="505.05,-416.82 495.13,-413.07 500.55,-422.18 505.05,-416.82"/>
<text text-anchor="middle" x="899.5" y="-455.8" font-family="Times,serif" font-size="14.00">Samples</text>
</g>
<!-- t1 -->
<g id="node5" class="node">
<title>t1</title>
<polygon fill="wheat" stroke="black" points="1004,-294 862,-294 862,-226 1004,-226 1004,-294"/>
<text text-anchor="middle" x="933" y="-278.8" font-family="Times,serif" font-size="14.00">Tile(1,0)</text>
<text text-anchor="middle" x="933" y="-263.8" font-family="Times,serif" font-size="14.00">Φ&#45;RFT Core</text>
<text text-anchor="middle" x="933" y="-248.8" font-family="Times,serif" font-size="14.00">32×256b Scratch</text>
<text text-anchor="middle" x="933" y="-233.8" font-family="Times,serif" font-size="14.00">32×256b Topo</text>
</g>
<!-- dma&#45;&gt;t1 -->
<g id="edge10" class="edge">
<title>dma&#45;&gt;t1</title>
<path fill="none" stroke="blue" d="M1033.69,-499.81C1035.95,-467.14 1037.2,-397.06 1013,-345 1005.55,-328.97 993.8,-314.06 981.58,-301.38"/>
<polygon fill="blue" stroke="blue" points="983.91,-298.77 974.36,-294.18 978.97,-303.72 983.91,-298.77"/>
</g>
<!-- t2 -->
<g id="node6" class="node">
<title>t2</title>
<polygon fill="wheat" stroke="black" points="1004,-189 862,-189 862,-121 1004,-121 1004,-189"/>
<text text-anchor="middle" x="933" y="-173.8" font-family="Times,serif" font-size="14.00">Tile(2,0)</text>
<text text-anchor="middle" x="933" y="-158.8" font-family="Times,serif" font-size="14.00">Φ&#45;RFT Core</text>
<text text-anchor="middle" x="933" y="-143.8" font-family="Times,serif" font-size="14.00">32×256b Scratch</text>
<text text-anchor="middle" x="933" y="-128.8" font-family="Times,serif" font-size="14.00">32×256b Topo</text>
</g>
<!-- dma&#45;&gt;t2 -->
<g id="edge11" class="edge">
<title>dma&#45;&gt;t2</title>
<path fill="none" stroke="blue" d="M1039.15,-499.91C1042.57,-490.3 1046.29,-478.19 1048,-467 1049.01,-460.41 1048.34,-458.66 1048,-452 1042.8,-350.49 1063.99,-313.93 1013,-226 1006.64,-215.04 997.95,-204.92 988.62,-195.99"/>
<polygon fill="blue" stroke="blue" points="990.78,-193.23 981.03,-189.08 986.07,-198.4 990.78,-193.23"/>
</g>
<!-- t3 -->
<g id="node7" class="node">
<title>t3</title>
<polygon fill="wheat" stroke="black" points="1004,-84 862,-84 862,-16 1004,-16 1004,-84"/>
<text text-anchor="middle" x="933" y="-68.8" font-family="Times,serif" font-size="14.00">Tile(3,0)</text>
<text text-anchor="middle" x="933" y="-53.8" font-family="Times,serif" font-size="14.00">Φ&#45;RFT Core</text>
<text text-anchor="middle" x="933" y="-38.8" font-family="Times,serif" font-size="14.00">32×256b Scratch</text>
<text text-anchor="middle" x="933" y="-23.8" font-family="Times,serif" font-size="14.00">32×256b Topo</text>
</g>
<!-- dma&#45;&gt;t3 -->
<g id="edge12" class="edge">
<title>dma&#45;&gt;t3</title>
<path fill="none" stroke="blue" d="M1050.01,-499.67C1072.49,-474.78 1108,-427.86 1108,-380 1108,-380 1108,-380 1108,-154 1108,-106.61 1059.74,-80.58 1013.9,-66.56"/>
<polygon fill="blue" stroke="blue" points="1014.76,-63.16 1004.18,-63.74 1012.81,-69.89 1014.76,-63.16"/>
</g>
<!-- noc&#45;&gt;t0 -->
<g id="edge13" class="edge">
<title>noc&#45;&gt;t0</title>
<path fill="none" stroke="red" d="M786.98,-509.58C718.42,-500.32 620.92,-481.45 543,-444 529.71,-437.62 516.65,-428.66 505.05,-419.46"/>
<polygon fill="red" stroke="red" points="786.93,-513.1 797.3,-510.93 787.84,-506.16 786.93,-513.1"/>
<polygon fill="red" stroke="red" points="507.22,-416.72 497.27,-413.08 502.78,-422.13 507.22,-416.72"/>
<text text-anchor="middle" x="620.5" y="-455.8" font-family="Times,serif" font-size="14.00">Packets</text>
</g>
<!-- t5 -->
<g id="node9" class="node">
<title>t5</title>
<polygon fill="wheat" stroke="black" points="92,-397 16,-397 16,-361 92,-361 92,-397"/>
<text text-anchor="middle" x="54" y="-375.3" font-family="Times,serif" font-size="14.00">Tile(1,1)</text>
</g>
<!-- noc&#45;&gt;t5 -->
<g id="edge14" class="edge">
<title>noc&#45;&gt;t5</title>
<path fill="none" stroke="red" d="M787.22,-518.45C611.94,-518 216.36,-509.52 101,-444 85.9,-435.43 74.29,-419.8 66.38,-406.13"/>
<polygon fill="red" stroke="red" points="787.43,-521.95 797.43,-518.46 787.44,-514.95 787.43,-521.95"/>
<polygon fill="red" stroke="red" points="69.33,-404.23 61.5,-397.1 63.17,-407.56 69.33,-404.23"/>
</g>
<!-- t10 -->
<g id="node14" class="node">
<title>t10</title>
<polygon fill="wheat" stroke="black" points="910,-397 834,-397 834,-361 910,-361 910,-397"/>
<text text-anchor="middle" x="872" y="-375.3" font-family="Times,serif" font-size="14.00">Tile(2,2)</text>
</g>
<!-- noc&#45;&gt;t10 -->
<g id="edge15" class="edge">
<title>noc&#45;&gt;t10</title>
<path fill="none" stroke="red" d="M872,-474.85C872,-452.82 872,-426.68 872,-407.43"/>
<polygon fill="red" stroke="red" points="868.5,-474.95 872,-484.95 875.5,-474.95 868.5,-474.95"/>
<polygon fill="red" stroke="red" points="875.5,-407.24 872,-397.24 868.5,-407.24 875.5,-407.24"/>
</g>
<!-- t15 -->
<g id="node19" class="node">
<title>t15</title>
<polygon fill="wheat" stroke="black" points="1004,-397 928,-397 928,-361 1004,-361 1004,-397"/>
<text text-anchor="middle" x="966" y="-375.3" font-family="Times,serif" font-size="14.00">Tile(3,3)</text>
</g>
<!-- noc&#45;&gt;t15 -->
<g id="edge16" class="edge">
<title>noc&#45;&gt;t15</title>
<path fill="none" stroke="red" d="M900.21,-476.58C915.89,-453.57 934.9,-425.66 948.45,-405.77"/>
<polygon fill="red" stroke="red" points="897.25,-474.71 894.52,-484.95 903.04,-478.65 897.25,-474.71"/>
<polygon fill="red" stroke="red" points="951.52,-407.48 954.26,-397.24 945.73,-403.54 951.52,-407.48"/>
</g>
<!-- t0&#45;&gt;t1 -->
<g id="edge1" class="edge">
<title>t0&#45;&gt;t1</title>
<path fill="none" stroke="black" d="M544,-344.85C654.44,-311.14 774.36,-287.61 851.76,-274.12"/>
<polygon fill="black" stroke="black" points="542.82,-341.55 534.3,-347.85 544.88,-348.24 542.82,-341.55"/>
<polygon fill="black" stroke="black" points="852.66,-277.51 861.92,-272.36 851.47,-270.62 852.66,-277.51"/>
<text text-anchor="middle" x="674.5" y="-315.8" font-family="Times,serif" font-size="14.00">NoC</text>
</g>
<!-- t4 -->
<g id="node8" class="node">
<title>t4</title>
<polygon fill="wheat" stroke="black" points="501,-278 425,-278 425,-242 501,-242 501,-278"/>
<text text-anchor="middle" x="463" y="-256.3" font-family="Times,serif" font-size="14.00">Tile(0,1)</text>
</g>
<!-- t0&#45;&gt;t4 -->
<g id="edge4" class="edge">
<title>t0&#45;&gt;t4</title>
<path fill="none" stroke="black" d="M463,-334.77C463,-319.23 463,-302.15 463,-288.35"/>
<polygon fill="black" stroke="black" points="459.5,-334.79 463,-344.79 466.5,-334.79 459.5,-334.79"/>
<polygon fill="black" stroke="black" points="466.5,-288.06 463,-278.06 459.5,-288.06 466.5,-288.06"/>
</g>
<!-- t1&#45;&gt;t2 -->
<g id="edge2" class="edge">
<title>t1&#45;&gt;t2</title>
<path fill="none" stroke="black" d="M933,-215.64C933,-210.22 933,-204.69 933,-199.28"/>
<polygon fill="black" stroke="black" points="929.5,-215.84 933,-225.84 936.5,-215.84 929.5,-215.84"/>
<polygon fill="black" stroke="black" points="936.5,-199.09 933,-189.09 929.5,-199.09 936.5,-199.09"/>
</g>
<!-- t2&#45;&gt;t3 -->
<g id="edge3" class="edge">
<title>t2&#45;&gt;t3</title>
<path fill="none" stroke="black" d="M933,-110.64C933,-105.22 933,-99.69 933,-94.28"/>
<polygon fill="black" stroke="black" points="929.5,-110.84 933,-120.84 936.5,-110.84 929.5,-110.84"/>
<polygon fill="black" stroke="black" points="936.5,-94.09 933,-84.09 929.5,-94.09 936.5,-94.09"/>
</g>
<!-- t8 -->
<g id="node12" class="node">
<title>t8</title>
<polygon fill="wheat" stroke="black" points="501,-173 425,-173 425,-137 501,-137 501,-173"/>
<text text-anchor="middle" x="463" y="-151.3" font-family="Times,serif" font-size="14.00">Tile(0,2)</text>
</g>
<!-- t4&#45;&gt;t8 -->
<g id="edge5" class="edge">
<title>t4&#45;&gt;t8</title>
<path fill="none" stroke="black" d="M463,-231.76C463,-216.76 463,-198.21 463,-183.22"/>
<polygon fill="black" stroke="black" points="459.5,-231.99 463,-241.99 466.5,-231.99 459.5,-231.99"/>
<polygon fill="black" stroke="black" points="466.5,-183.03 463,-173.03 459.5,-183.03 466.5,-183.03"/>
</g>
<!-- t6 -->
<g id="node10" class="node">
<title>t6</title>
<polygon fill="wheat" stroke="black" points="816,-397 740,-397 740,-361 816,-361 816,-397"/>
<text text-anchor="middle" x="778" y="-375.3" font-family="Times,serif" font-size="14.00">Tile(2,1)</text>
</g>
<!-- t7 -->
<g id="node11" class="node">
<title>t7</title>
<polygon fill="wheat" stroke="black" points="722,-397 646,-397 646,-361 722,-361 722,-397"/>
<text text-anchor="middle" x="684" y="-375.3" font-family="Times,serif" font-size="14.00">Tile(3,1)</text>
</g>
<!-- t12 -->
<g id="node16" class="node">
<title>t12</title>
<polygon fill="wheat" stroke="black" points="501,-68 425,-68 425,-32 501,-32 501,-68"/>
<text text-anchor="middle" x="463" y="-46.3" font-family="Times,serif" font-size="14.00">Tile(0,3)</text>
</g>
<!-- t8&#45;&gt;t12 -->
<g id="edge6" class="edge">
<title>t8&#45;&gt;t12</title>
<path fill="none" stroke="black" d="M463,-126.76C463,-111.76 463,-93.21 463,-78.22"/>
<polygon fill="black" stroke="black" points="459.5,-126.99 463,-136.99 466.5,-126.99 459.5,-126.99"/>
<polygon fill="black" stroke="black" points="466.5,-78.03 463,-68.03 459.5,-78.03 466.5,-78.03"/>
</g>
<!-- t9 -->
<g id="node13" class="node">
<title>t9</title>
<polygon fill="wheat" stroke="black" points="628,-397 552,-397 552,-361 628,-361 628,-397"/>
<text text-anchor="middle" x="590" y="-375.3" font-family="Times,serif" font-size="14.00">Tile(1,2)</text>
</g>
<!-- t11 -->
<g id="node15" class="node">
<title>t11</title>
<polygon fill="wheat" stroke="black" points="374,-397 298,-397 298,-361 374,-361 374,-397"/>
<text text-anchor="middle" x="336" y="-375.3" font-family="Times,serif" font-size="14.00">Tile(3,2)</text>
</g>
<!-- t13 -->
<g id="node17" class="node">
<title>t13</title>
<polygon fill="wheat" stroke="black" points="280,-397 204,-397 204,-361 280,-361 280,-397"/>
<text text-anchor="middle" x="242" y="-375.3" font-family="Times,serif" font-size="14.00">Tile(1,3)</text>
</g>
<!-- t14 -->
<g id="node18" class="node">
<title>t14</title>
<polygon fill="wheat" stroke="black" points="186,-397 110,-397 110,-361 186,-361 186,-397"/>
<text text-anchor="middle" x="148" y="-375.3" font-family="Times,serif" font-size="14.00">Tile(2,3)</text>
</g>
<!-- legend -->
<g id="node20" class="node">
<title>legend</title>
<polygon fill="lightgrey" stroke="transparent" points="1209,-711 1057,-711 1057,-619 1209,-619 1209,-711"/>
<polygon fill="lightblue" stroke="transparent" points="1065,-686 1065,-707 1201,-707 1201,-686 1065,-686"/>
<polygon fill="none" stroke="black" points="1065,-686 1065,-707 1201,-707 1201,-686 1065,-686"/>
<text text-anchor="start" x="1087" y="-693.8" font-family="Times,serif" font-weight="bold" font-size="14.00">Top Module</text>
<polygon fill="lightgreen" stroke="transparent" points="1065,-665 1065,-686 1201,-686 1201,-665 1065,-665"/>
<polygon fill="none" stroke="black" points="1065,-665 1065,-686 1201,-686 1201,-665 1065,-665"/>
<text text-anchor="start" x="1071" y="-672.8" font-family="Times,serif" font-weight="bold" font-size="14.00">DMA Controller</text>
<polygon fill="orange" stroke="transparent" points="1065,-644 1065,-665 1201,-665 1201,-644 1065,-644"/>
<polygon fill="none" stroke="black" points="1065,-644 1065,-665 1201,-665 1201,-644 1065,-644"/>
<text text-anchor="start" x="1089.5" y="-651.8" font-family="Times,serif" font-weight="bold" font-size="14.00">NoC Fabric</text>
<polygon fill="wheat" stroke="transparent" points="1065,-623 1065,-644 1201,-644 1201,-623 1065,-623"/>
<polygon fill="none" stroke="black" points="1065,-623 1065,-644 1201,-644 1201,-623 1065,-623"/>
<text text-anchor="start" x="1068" y="-630.8" font-family="Times,serif" font-weight="bold" font-size="14.00">Processing Tiles</text>
</g>
</g>
</svg>
