<svg xmlns="http://www.w3.org/2000/svg" viewBox="0 0 64 64" fill="none" stroke="#00aaff" stroke-width="2" stroke-linecap="round" stroke-linejoin="round">
  <!-- Wave/DAW icon - Φ-RFT Native -->
  <!-- Waveform tracks -->
  <path d="M4 16 Q8 10 12 16 Q16 22 20 16 Q24 10 28 16" stroke="#00aaff"/>
  <path d="M4 28 Q10 22 16 28 Q22 34 28 28" stroke="#00ffaa"/>
  <path d="M4 40 Q8 36 12 40 Q16 44 20 40 Q24 36 28 40" stroke="#ffaa00"/>
  
  <!-- Mixer faders -->
  <rect x="36" y="12" width="4" height="24" rx="1" fill="#2a2a2a" stroke="#3a3a3a"/>
  <rect x="36" y="20" width="4" height="8" rx="1" fill="#00aaff" stroke="#00aaff"/>
  
  <rect x="44" y="12" width="4" height="24" rx="1" fill="#2a2a2a" stroke="#3a3a3a"/>
  <rect x="44" y="16" width="4" height="12" rx="1" fill="#00ffaa" stroke="#00ffaa"/>
  
  <rect x="52" y="12" width="4" height="24" rx="1" fill="#2a2a2a" stroke="#3a3a3a"/>
  <rect x="52" y="24" width="4" height="6" rx="1" fill="#ffaa00" stroke="#ffaa00"/>
  
  <!-- Transport bar -->
  <rect x="4" y="50" width="56" height="10" rx="2" fill="#0f0f0f" stroke="#3a3a3a"/>
  <!-- Play button -->
  <polygon points="10,53 10,57 14,55" fill="#00ffaa"/>
  <!-- Stop button -->
  <rect x="18" y="53" width="4" height="4" fill="#888888"/>
  <!-- Position display -->
  <rect x="26" y="52" width="20" height="6" rx="1" fill="#000000" stroke="#3a3a3a"/>
  <text x="28" y="57" font-size="4" fill="#00ffaa" font-family="monospace">001:01</text>
  
  <!-- Golden spiral hint (Φ) -->
  <path d="M54 52 Q58 50 60 54 Q58 58 54 56" stroke="#00aaff" stroke-dasharray="1,1" opacity="0.6"/>
</svg>
